<svg xmlns="http://www.w3.org/2000/svg" version="1.1" viewBox="0.00 0.00 767.00 350.00" width="767.00" height="350.00">
<g stroke-width="2.00" fill="none" stroke-linecap="butt">
<path stroke="#7e6902" d="&#10;  M 671.3489 71.9079&#10;  A 20.60 8.40 55.8 0 0 666.7175 50.1485&#10;  A 20.60 8.40 55.8 0 0 648.1911 37.8321&#10;  A 20.60 8.40 55.8 0 0 652.8225 59.5915&#10;  A 20.60 8.40 55.8 0 0 671.3489 71.9079"/>
<path stroke="#7e6902" d="&#10;  M 632.3945 98.3361&#10;  A 20.61 8.40 55.8 0 0 627.7575 76.5685&#10;  A 20.61 8.40 55.8 0 0 609.2255 64.2439&#10;  A 20.61 8.40 55.8 0 0 613.8625 86.0115&#10;  A 20.61 8.40 55.8 0 0 632.3945 98.3361"/>
<path stroke="#7e6902" d="&#10;  M 683.50 132.20&#10;  Q 674.55 138.26 663.26 140.63&#10;  C 649.74 143.46 633.13 140.22 621.92 132.31&#10;  A 1.51 1.47 10.5 0 1 621.34 131.49&#10;  Q 620.67 129.10 619.89 127.65&#10;  Q 619.23 126.42 618.64 126.27&#10;  A 2.45 2.22 -78.3 0 0 615.87 128.29&#10;  Q 614.63 135.54 619.33 141.09&#10;  Q 620.85 142.89 622.99 142.19&#10;  A 0.75 0.74 -9.4 0 0 623.50 141.49&#10;  L 623.50 139.13&#10;  A 0.26 0.26 0.0 0 1 623.91 138.92&#10;  Q 626.71 140.90 630.62 142.65&#10;  C 649.08 150.89 670.43 149.59 687.46 138.05&#10;  C 704.50 126.51 713.61 107.17 712.81 86.97&#10;  Q 712.63 82.69 711.83 79.35&#10;  A 0.26 0.26 0.0 0 1 712.18 79.05&#10;  L 714.37 79.93&#10;  A 0.75 0.74 -58.9 0 0 715.21 79.71&#10;  Q 716.65 77.98 715.55 75.90&#10;  Q 712.14 69.48 704.94 67.94&#10;  A 2.45 2.22 10.0 0 0 702.04 69.77&#10;  Q 701.96 70.37 702.86 71.44&#10;  Q 703.91 72.70 705.89 74.21&#10;  A 1.51 1.47 -78.8 0 1 706.43 75.05&#10;  C 709.62 88.40 706.47 105.03 698.83 116.53&#10;  Q 692.44 126.14 683.50 132.20"/>
</g>
<path fill="#ff6800" d="&#10;  M 220.44 0.00&#10;  Q 235.78 34.39 258.38 64.84&#10;  Q 259.76 66.69 261.47 66.18&#10;  Q 262.43 65.88 262.99 65.03&#10;  Q 273.32 49.21 287.40 28.91&#10;  C 291.10 23.58 293.81 19.33 294.32 13.58&#10;  A 1.72 1.71 2.4 0 1 296.03 12.01&#10;  Q 341.61 12.04 373.53 11.94&#10;  Q 378.36 11.92 381.14 16.09&#10;  Q 427.28 85.37 432.45 93.19&#10;  Q 432.99 94.02 433.21 94.54&#10;  A 1.09 1.08 78.7 0 1 432.21 96.04&#10;  L 349.37 96.04&#10;  A 2.73 2.72 73.2 0 1 347.10 94.82&#10;  Q 322.06 57.04 305.29 31.97&#10;  Q 304.36 30.58 303.18 30.05&#10;  A 1.96 1.96 0.0 0 0 300.75 30.77&#10;  Q 287.00 51.82 275.83 67.97&#10;  C 273.12 71.89 270.71 71.88 266.86 73.61&#10;  A 1.03 1.03 0.0 0 0 266.43 75.13&#10;  Q 271.64 82.92 276.43 90.08&#10;  Q 277.86 92.23 278.18 94.71&#10;  A 1.14 1.13 62.8 0 1 277.89 95.63&#10;  C 275.51 98.18 264.29 97.20 261.30 96.61&#10;  C 256.92 95.76 255.23 94.06 252.61 90.59&#10;  Q 251.79 89.51 232.84 60.41&#10;  Q 224.70 47.93 211.46 28.18&#10;  Q 210.52 26.79 209.38 26.08&#10;  A 0.88 0.87 -57.5 0 0 208.18 26.35&#10;  Q 166.79 90.12 137.54 135.04&#10;  Q 135.61 138.02 131.25 138.02&#10;  Q 72.41 137.99 11.25 138.00&#10;  Q 6.51 138.00 0.00 136.68&#10;  L 0.00 133.34&#10;  Q 22.12 99.41 44.73 65.35&#10;  Q 44.78 65.27 65.59 33.56&#10;  Q 76.79 16.47 88.28 0.00&#10;  L 220.44 0.00&#10;  Z"/>
<path fill="#fcd204" d="&#10;  M 730.95 77.07&#10;  C 739.35 121.00 709.07 162.78 665.03 169.25&#10;  C 608.52 177.55 561.75 123.45 578.86 68.62&#10;  C 595.72 14.61 661.50 -4.77 704.95 32.05&#10;  C 712.22 38.21 714.43 42.96 721.75 53.55&#10;  Q 725.63 59.17 727.35 64.07&#10;  Q 729.81 71.10 730.95 77.07&#10;  Z&#10;  M 671.3489 71.9079&#10;  A 20.60 8.40 55.8 0 0 666.7175 50.1485&#10;  A 20.60 8.40 55.8 0 0 648.1911 37.8321&#10;  A 20.60 8.40 55.8 0 0 652.8225 59.5915&#10;  A 20.60 8.40 55.8 0 0 671.3489 71.9079&#10;  Z&#10;  M 632.3945 98.3361&#10;  A 20.61 8.40 55.8 0 0 627.7575 76.5685&#10;  A 20.61 8.40 55.8 0 0 609.2255 64.2439&#10;  A 20.61 8.40 55.8 0 0 613.8625 86.0115&#10;  A 20.61 8.40 55.8 0 0 632.3945 98.3361&#10;  Z&#10;  M 683.50 132.20&#10;  Q 674.55 138.26 663.26 140.63&#10;  C 649.74 143.46 633.13 140.22 621.92 132.31&#10;  A 1.51 1.47 10.5 0 1 621.34 131.49&#10;  Q 620.67 129.10 619.89 127.65&#10;  Q 619.23 126.42 618.64 126.27&#10;  A 2.45 2.22 -78.3 0 0 615.87 128.29&#10;  Q 614.63 135.54 619.33 141.09&#10;  Q 620.85 142.89 622.99 142.19&#10;  A 0.75 0.74 -9.4 0 0 623.50 141.49&#10;  L 623.50 139.13&#10;  A 0.26 0.26 0.0 0 1 623.91 138.92&#10;  Q 626.71 140.90 630.62 142.65&#10;  C 649.08 150.89 670.43 149.59 687.46 138.05&#10;  C 704.50 126.51 713.61 107.17 712.81 86.97&#10;  Q 712.63 82.69 711.83 79.35&#10;  A 0.26 0.26 0.0 0 1 712.18 79.05&#10;  L 714.37 79.93&#10;  A 0.75 0.74 -58.9 0 0 715.21 79.71&#10;  Q 716.65 77.98 715.55 75.90&#10;  Q 712.14 69.48 704.94 67.94&#10;  A 2.45 2.22 10.0 0 0 702.04 69.77&#10;  Q 701.96 70.37 702.86 71.44&#10;  Q 703.91 72.70 705.89 74.21&#10;  A 1.51 1.47 -78.8 0 1 706.43 75.05&#10;  C 709.62 88.40 706.47 105.03 698.83 116.53&#10;  Q 692.44 126.14 683.50 132.20&#10;  Z"/>
<ellipse fill="#000000" cx="0.00" cy="0.00" transform="translate(659.77,54.87) rotate(55.8)" rx="20.60" ry="8.40"/>
<ellipse fill="#000000" cx="0.00" cy="0.00" transform="translate(620.81,81.29) rotate(55.8)" rx="20.61" ry="8.40"/>
<path fill="#000000" d="&#10;  M 687.46 138.05&#10;  C 670.43 149.59 649.08 150.89 630.62 142.65&#10;  Q 626.71 140.90 623.91 138.92&#10;  A 0.26 0.26 0.0 0 0 623.50 139.13&#10;  L 623.50 141.49&#10;  A 0.75 0.74 -9.4 0 1 622.99 142.19&#10;  Q 620.85 142.89 619.33 141.09&#10;  Q 614.63 135.54 615.87 128.29&#10;  A 2.45 2.22 -78.3 0 1 618.64 126.27&#10;  Q 619.23 126.42 619.89 127.65&#10;  Q 620.67 129.10 621.34 131.49&#10;  A 1.51 1.47 10.5 0 0 621.92 132.31&#10;  C 633.13 140.22 649.74 143.46 663.26 140.63&#10;  Q 674.55 138.26 683.50 132.20&#10;  Q 692.44 126.14 698.83 116.53&#10;  C 706.47 105.03 709.62 88.40 706.43 75.05&#10;  A 1.51 1.47 -78.8 0 0 705.89 74.21&#10;  Q 703.91 72.70 702.86 71.44&#10;  Q 701.96 70.37 702.04 69.77&#10;  A 2.45 2.22 10.0 0 1 704.94 67.94&#10;  Q 712.14 69.48 715.55 75.90&#10;  Q 716.65 77.98 715.21 79.71&#10;  A 0.75 0.74 -58.9 0 1 714.37 79.93&#10;  L 712.18 79.05&#10;  A 0.26 0.26 0.0 0 0 711.83 79.35&#10;  Q 712.63 82.69 712.81 86.97&#10;  C 713.61 107.17 704.50 126.51 687.46 138.05&#10;  Z"/>
<path fill="#ff6800" d="&#10;  M 354.25 125.47&#10;  A 0.99 0.98 -74.8 0 1 355.13 124.96&#10;  Q 403.67 125.09 466.78 124.97&#10;  C 475.83 124.95 474.95 134.13 474.98 140.27&#10;  Q 475.14 167.09 474.96 182.51&#10;  Q 474.91 187.28 472.12 191.00&#10;  C 470.74 192.85 468.32 193.98 467.07 195.35&#10;  A 0.97 0.97 0.0 0 0 467.30 196.85&#10;  Q 475.78 201.78 476.52 211.25&#10;  C 477.72 226.40 477.98 240.15 478.73 257.25&#10;  Q 479.38 272.28 477.98 287.91&#10;  C 477.51 293.16 475.50 297.23 470.64 299.04&#10;  Q 468.02 300.01 462.25 300.01&#10;  Q 374.31 300.01 356.51 299.99&#10;  Q 353.97 299.98 353.98 297.25&#10;  Q 354.00 283.26 354.00 126.27&#10;  Q 354.00 125.91 354.25 125.47&#10;  Z&#10;  M 402.83 186.36&#10;  Q 404.04 186.80 406.36 186.88&#10;  Q 415.36 187.18 425.52 186.81&#10;  Q 428.77 186.69 428.84 182.99&#10;  Q 429.03 173.11 428.95 149.32&#10;  C 428.94 145.62 428.15 142.63 424.49 142.21&#10;  Q 420.28 141.73 405.52 142.18&#10;  Q 403.63 142.23 401.91 143.33&#10;  A 1.26 1.25 77.7 0 0 401.35 144.21&#10;  Q 401.02 146.55 401.01 148.25&#10;  Q 400.96 165.59 401.05 180.99&#10;  Q 401.07 184.60 402.00 185.76&#10;  A 1.86 1.85 80.6 0 0 402.83 186.36&#10;  Z&#10;  M 401.44 281.79&#10;  Q 403.35 282.87 406.27 282.92&#10;  Q 416.38 283.13 428.35 282.88&#10;  C 431.02 282.83 432.83 282.11 432.85 279.26&#10;  Q 433.10 245.13 432.96 211.01&#10;  Q 432.95 207.81 432.14 205.76&#10;  A 1.16 1.15 79.1 0 0 431.07 205.03&#10;  L 403.36 205.03&#10;  A 2.66 2.66 0.0 0 0 400.76 207.13&#10;  Q 400.03 210.51 399.99 214.76&#10;  Q 399.87 226.14 400.51 237.98&#10;  C 401.28 252.42 400.87 267.95 401.04 281.12&#10;  A 0.77 0.76 14.6 0 0 401.44 281.79&#10;  Z"/>
<path fill="#ff6800" d="&#10;  M 532.20 299.58&#10;  Q 531.74 299.95 529.26 299.97&#10;  Q 505.72 300.11 494.66 299.90&#10;  Q 491.07 299.83 491.02 296.39&#10;  Q 490.70 271.91 490.91 257.25&#10;  C 491.11 243.30 491.96 226.86 491.93 209.75&#10;  Q 491.91 197.91 492.02 129.75&#10;  Q 492.03 127.52 492.23 126.45&#10;  A 1.73 1.72 -84.9 0 1 493.91 125.04&#10;  Q 509.53 124.93 529.30 125.03&#10;  C 534.81 125.06 534.00 128.64 534.00 133.33&#10;  Q 533.99 183.20 534.01 289.51&#10;  Q 534.01 297.14 532.92 298.80&#10;  A 3.16 3.04 -3.3 0 1 532.20 299.58&#10;  Z"/>
<path fill="#ff6800" d="&#10;  M 0.00 178.04&#10;  L 0.00 174.71&#10;  Q 5.22 170.49 11.20 166.54&#10;  Q 11.96 166.04 11.67 165.19&#10;  Q 11.56 164.88 11.01 164.49&#10;  Q 5.35 160.54 0.00 156.47&#10;  L 0.00 153.07&#10;  L 13.38 162.66&#10;  A 2.64 2.63 -45.1 0 0 16.48 162.65&#10;  L 26.31 155.45&#10;  A 0.50 0.50 0.0 0 1 27.10 155.85&#10;  L 27.10 157.09&#10;  A 2.60 2.59 -18.3 0 1 26.04 159.18&#10;  L 17.57 165.38&#10;  A 0.16 0.15 45.8 0 0 17.57 165.63&#10;  L 26.12 171.85&#10;  A 2.47 2.45 18.1 0 1 27.14 173.84&#10;  L 27.14 175.06&#10;  A 0.53 0.53 0.0 0 1 26.29 175.49&#10;  L 16.52 168.39&#10;  A 2.70 2.69 -44.9 0 0 13.35 168.39&#10;  L 0.00 178.04&#10;  Z"/>
<path fill="#ff6800" d="&#10;  M 0.00 199.29&#10;  L 0.00 186.18&#10;  L 26.08 186.01&#10;  A 0.89 0.88 86.8 0 1 26.97 186.81&#10;  Q 27.57 192.92 26.85 198.52&#10;  Q 26.35 202.41 22.98 204.06&#10;  Q 17.71 206.64 14.50 202.55&#10;  A 0.43 0.43 0.0 0 0 13.82 202.55&#10;  C 9.32 208.31 1.55 206.54 0.00 199.29&#10;  Z&#10;  M 11.18 189.05&#10;  L 3.90 189.03&#10;  A 0.85 0.85 0.0 0 0 3.05 189.87&#10;  L 3.02 197.59&#10;  A 5.51 3.75 -89.8 0 0 6.76 203.12&#10;  L 8.24 203.12&#10;  A 5.51 3.75 -89.8 0 0 12.00 197.63&#10;  L 12.03 189.91&#10;  A 0.85 0.85 0.0 0 0 11.18 189.05&#10;  Z&#10;  M 22.99 188.99&#10;  L 15.99 189.07&#10;  A 1.00 1.00 0.0 0 0 15.00 190.09&#10;  L 15.10 197.72&#10;  A 4.44 4.18 89.3 0 0 19.33 202.11&#10;  L 19.97 202.11&#10;  A 4.44 4.18 89.3 0 0 24.10 197.61&#10;  L 24.00 189.98&#10;  A 1.00 1.00 0.0 0 0 22.99 188.99&#10;  Z"/>
<path fill="#ff6800" d="&#10;  M 767.00 195.46&#10;  L 767.00 339.30&#10;  C 764.07 347.74 753.64 347.08 745.24 347.12&#10;  C 732.94 347.18 715.45 345.95 701.57 345.98&#10;  Q 676.43 346.03 672.92 345.98&#10;  A 1.91 1.91 0.0 0 1 671.03 344.07&#10;  L 671.03 331.85&#10;  A 1.87 1.86 90.0 0 1 672.89 329.98&#10;  L 722.83 329.98&#10;  A 1.72 1.72 0.0 0 0 724.55 328.38&#10;  Q 725.32 317.50 724.85 303.76&#10;  Q 724.79 302.00 723.77 300.93&#10;  A 1.52 1.49 -16.7 0 0 722.91 300.48&#10;  Q 719.66 299.95 716.02 299.97&#10;  Q 684.38 300.15 674.77 299.97&#10;  Q 668.80 299.86 667.29 294.25&#10;  Q 666.18 290.13 666.04 283.00&#10;  Q 665.67 264.65 666.74 234.50&#10;  C 667.16 222.72 667.04 209.60 666.87 198.51&#10;  C 666.80 194.43 666.81 190.54 670.96 188.45&#10;  Q 673.98 186.92 679.01 186.98&#10;  Q 705.30 187.29 731.00 186.11&#10;  C 738.03 185.79 746.53 185.65 753.00 186.19&#10;  C 758.85 186.68 765.53 189.23 767.00 195.46&#10;  Z&#10;  M 723.96 208.16&#10;  A 4.03 4.03 0.0 0 0 719.93 204.13&#10;  L 710.03 204.13&#10;  A 4.03 4.03 0.0 0 0 706.00 208.16&#10;  L 706.00 278.84&#10;  A 4.03 4.03 0.0 0 0 710.03 282.87&#10;  L 719.93 282.87&#10;  A 4.03 4.03 0.0 0 0 723.96 278.84&#10;  L 723.96 208.16&#10;  Z"/>
<path fill="#ff6800" d="&#10;  M 166.56 208.86&#10;  Q 167.24 208.86 168.07 207.55&#10;  Q 173.86 198.42 177.75 192.03&#10;  Q 180.82 186.97 186.48 186.92&#10;  Q 205.84 186.76 225.33 187.11&#10;  A 1.80 1.79 4.0 0 1 227.08 189.12&#10;  Q 226.96 190.14 226.15 191.35&#10;  Q 205.03 223.06 195.28 238.01&#10;  C 192.88 241.69 193.98 244.54 196.38 248.16&#10;  Q 218.10 281.05 226.10 293.77&#10;  Q 227.43 295.87 227.30 297.78&#10;  A 2.22 2.22 0.0 0 1 225.13 299.85&#10;  Q 206.68 300.24 189.37 299.92&#10;  C 183.76 299.82 180.62 296.91 177.76 291.64&#10;  Q 173.48 283.74 167.79 275.75&#10;  Q 167.29 275.04 166.61 275.04&#10;  Q 165.93 275.04 165.42 275.76&#10;  Q 159.75 283.75 155.48 291.66&#10;  C 152.63 296.93 149.49 299.84 143.88 299.95&#10;  Q 126.57 300.30 108.12 299.93&#10;  A 2.22 2.22 0.0 0 1 105.95 297.87&#10;  Q 105.81 295.96 107.14 293.85&#10;  Q 115.12 281.12 136.80 248.20&#10;  C 139.19 244.58 140.29 241.73 137.88 238.05&#10;  Q 128.11 223.11 106.95 191.43&#10;  Q 106.13 190.23 106.01 189.21&#10;  A 1.80 1.79 -4.1 0 1 107.76 187.19&#10;  Q 127.25 186.82 146.61 186.95&#10;  Q 152.27 186.99 155.35 192.05&#10;  Q 159.25 198.43 165.05 207.55&#10;  Q 165.88 208.86 166.56 208.86&#10;  Z"/>
<path fill="#ff6800" d="&#10;  M 650.00 289.70&#10;  A 10.33 10.33 0.0 0 1 639.67 300.03&#10;  L 560.31 300.03&#10;  A 10.33 10.33 0.0 0 1 549.98 289.70&#10;  L 549.98 197.34&#10;  A 10.33 10.33 0.0 0 1 560.31 187.01&#10;  L 639.67 187.01&#10;  A 10.33 10.33 0.0 0 1 650.00 197.34&#10;  L 650.00 289.70&#10;  Z&#10;  M 589.26 206.73&#10;  Q 588.95 209.12 589.02 225.27&#10;  C 589.09 242.45 587.78 259.93 588.04 276.25&#10;  C 588.09 279.21 588.33 282.48 592.25 282.76&#10;  Q 598.85 283.24 604.54 282.83&#10;  Q 607.50 282.62 607.71 279.94&#10;  C 608.03 275.90 608.56 271.97 608.64 268.33&#10;  Q 609.26 239.41 608.88 208.98&#10;  C 608.84 205.68 605.65 204.40 602.83 204.16&#10;  C 599.72 203.90 591.75 203.32 589.69 205.76&#10;  A 1.85 1.85 0.0 0 0 589.26 206.73&#10;  Z"/>
<path fill="#ff6800" d="&#10;  M 334.06 204.09&#10;  A 3.83 3.83 0.0 0 1 337.89 207.93&#10;  L 337.88 214.04&#10;  A 6.28 6.02 0.1 0 1 331.59 220.05&#10;  L 251.15 219.91&#10;  A 6.28 6.02 0.1 0 1 244.88 213.88&#10;  L 244.89 207.77&#10;  A 3.83 3.83 0.0 0 1 248.72 203.95&#10;  L 334.06 204.09&#10;  Z"/>
<path fill="#ff6800" d="&#10;  M 0.00 230.50&#10;  L 0.00 226.09&#10;  L 0.00 220.03&#10;  L 0.00 218.78&#10;  L 0.15 216.08&#10;  A 1.18 1.17 -88.5 0 1 1.32 214.96&#10;  L 25.90 215.05&#10;  A 1.32 1.31 3.2 0 1 27.20 216.50&#10;  L 27.19 216.56&#10;  A 1.57 1.57 0.0 0 1 25.63 217.96&#10;  L 3.72 218.05&#10;  A 0.79 0.79 0.0 0 0 2.94 218.84&#10;  L 2.94 230.91&#10;  A 1.36 1.36 0.0 0 1 0.28 231.33&#10;  L 0.00 230.50&#10;  Z"/>
<path fill="#ff6800" d="&#10;  M 0.00 255.20&#10;  L 0.00 250.79&#10;  C 2.06 241.83 11.10 237.35 19.41 241.09&#10;  C 28.88 245.34 29.89 258.81 20.85 264.15&#10;  C 12.30 269.19 2.43 264.90 0.00 255.20&#10;  Z&#10;  M 23.9120 252.0691&#10;  A 9.06 9.06 0.0 0 0 14.7733 243.0885&#10;  L 12.0534 243.1122&#10;  A 9.06 9.06 0.0 0 0 3.0728 252.2510&#10;  L 3.0880 253.9909&#10;  A 9.06 9.06 0.0 0 0 12.2267 262.9715&#10;  L 14.9466 262.9478&#10;  A 9.06 9.06 0.0 0 0 23.9272 253.8090&#10;  L 23.9120 252.0691&#10;  Z"/>
<path fill="#ff6800" d="&#10;  M 0.00 290.34&#10;  L 0.00 286.43&#10;  C 0.96 276.25 9.76 271.71 18.83 274.99&#10;  C 27.13 277.98 28.78 287.84 25.45 295.22&#10;  C 24.24 297.91 21.84 298.88 19.27 299.76&#10;  A 0.31 0.31 0.0 0 1 18.87 299.47&#10;  L 18.87 297.47&#10;  A 1.12 1.11 75.3 0 1 19.43 296.50&#10;  Q 25.58 292.96 23.76 284.92&#10;  C 22.19 277.97 15.30 275.71 8.97 277.71&#10;  Q 5.80 278.71 4.25 282.22&#10;  Q 1.41 288.62 4.83 295.91&#10;  A 2.03 2.02 77.3 0 0 6.66 297.07&#10;  L 10.12 297.07&#10;  A 0.96 0.95 -90.0 0 0 11.07 296.11&#10;  L 11.07 288.99&#10;  A 1.21 1.21 0.0 0 1 12.54 287.81&#10;  L 12.96 287.90&#10;  A 1.35 1.35 0.0 0 1 14.03 289.22&#10;  L 14.03 298.86&#10;  A 1.11 1.11 0.0 0 1 12.97 299.97&#10;  C 9.48 300.15 4.95 300.87 2.64 298.33&#10;  Q 0.76 296.27 0.00 290.34&#10;  Z"/>
</svg>