<svg xmlns="http://www.w3.org/2000/svg" version="1.1" viewBox="0.00 0.00 184.00 84.00" width="184.00" height="84.00">
<path fill="#72ad39" d="&#10;  M 52.79 0.00&#10;  Q 56.36 8.40 62.02 15.78&#10;  A 0.73 0.73 0.0 0 0 63.20 15.74&#10;  L 70.38 5.06&#10;  A 0.67 0.66 -24.1 0 0 70.50 4.75&#10;  L 70.65 3.67&#10;  A 0.89 0.89 0.0 0 1 71.53 2.91&#10;  L 89.30 2.91&#10;  A 2.46 2.44 73.1 0 1 91.34 4.01&#10;  L 103.67 22.57&#10;  A 0.29 0.29 0.0 0 1 103.42 23.02&#10;  L 84.27 23.02&#10;  A 1.18 1.18 0.0 0 1 83.29 22.50&#10;  L 73.24 7.37&#10;  A 0.77 0.76 -45.2 0 0 71.96 7.38&#10;  Q 69.11 11.83 65.82 16.49&#10;  Q 65.42 17.05 63.93 17.50&#10;  A 0.35 0.35 0.0 0 0 63.73 18.03&#10;  L 66.46 22.15&#10;  A 0.60 0.60 0.0 0 1 65.96 23.08&#10;  L 63.31 23.08&#10;  A 2.92 2.90 -16.6 0 1 60.88 21.78&#10;  L 50.62 6.32&#10;  A 0.53 0.52 -45.3 0 0 49.74 6.33&#10;  L 32.84 32.33&#10;  A 1.74 1.73 16.9 0 1 31.37 33.11&#10;  L 0.00 32.87&#10;  L 0.00 32.24&#10;  L 21.29 0.00&#10;  L 52.79 0.00&#10;  Z"/>
<path fill="#72ad39" d="&#10;  M 84.99 71.19&#10;  L 84.99 30.45&#10;  A 0.34 0.33 90.0 0 1 85.32 30.11&#10;  L 111.86 30.11&#10;  A 1.95 1.95 0.0 0 1 113.81 32.06&#10;  L 113.81 43.87&#10;  A 2.43 2.42 -32.6 0 1 113.58 44.90&#10;  Q 113.03 46.12 112.00 46.60&#10;  A 0.40 0.39 51.3 0 0 111.93 47.27&#10;  Q 114.02 48.85 114.14 50.40&#10;  Q 114.92 61.09 114.61 68.68&#10;  Q 114.47 71.95 110.99 71.92&#10;  Q 105.10 71.87 85.69 71.89&#10;  A 0.70 0.70 0.0 0 1 84.99 71.19&#10;  Z&#10;  M 103.0552 35.2123&#10;  A 1.19 1.19 0.0 0 0 101.8694 34.0182&#10;  L 97.1894 34.0019&#10;  A 1.19 1.19 0.0 0 0 95.9952 35.1877&#10;  L 95.9648 43.9077&#10;  A 1.19 1.19 0.0 0 0 97.1506 45.1018&#10;  L 101.8306 45.1181&#10;  A 1.19 1.19 0.0 0 0 103.0248 43.9323&#10;  L 103.0552 35.2123&#10;  Z&#10;  M 103.9850 49.9130&#10;  A 0.92 0.92 0.0 0 0 103.0634 48.9946&#10;  L 96.8634 49.0054&#10;  A 0.92 0.92 0.0 0 0 95.9450 49.9270&#10;  L 95.9750 67.0870&#10;  A 0.92 0.92 0.0 0 0 96.8966 68.0054&#10;  L 103.0966 67.9946&#10;  A 0.92 0.92 0.0 0 0 104.0150 67.0730&#10;  L 103.9850 49.9130&#10;  Z"/>
<rect fill="#72ad39" x="-4.93" y="-20.84" transform="translate(122.97,50.97) rotate(0.1)" width="9.86" height="41.68" rx="0.68"/>
<path fill="#72ad39" d="&#10;  M 0.00 38.66&#10;  L 0.00 38.36&#10;  L 2.76 39.06&#10;  A 0.26 0.25 -52.9 0 1 2.82 39.53&#10;  Q 1.68 40.20 0.00 38.66&#10;  Z"/>
<path fill="#72ad39" d="&#10;  M 6.68 38.94&#10;  Q 6.17 39.59 4.47 39.93&#10;  A 0.46 0.46 0.0 0 0 4.11 40.47&#10;  Q 4.19 40.87 4.55 40.88&#10;  Q 6.01 40.90 6.88 42.34&#10;  A 0.26 0.25 82.8 0 1 6.59 42.72&#10;  Q 4.24 41.98 3.87 41.39&#10;  A 0.53 0.53 0.0 0 0 3.10 41.25&#10;  Q 1.69 42.30 0.68 42.61&#10;  A 0.32 0.31 -86.8 0 1 0.30 42.18&#10;  Q 0.54 41.63 2.37 40.89&#10;  Q 3.55 40.41 3.96 39.24&#10;  A 0.77 0.75 8.8 0 1 4.69 38.72&#10;  L 6.57 38.72&#10;  A 0.14 0.14 0.0 0 1 6.68 38.94&#10;  Z"/>
<path fill="#72ad39" d="&#10;  M 39.97 65.78&#10;  Q 39.75 65.78 39.68 65.88&#10;  Q 37.86 68.45 37.01 70.17&#10;  A 3.08 3.08 0.0 0 1 34.25 71.88&#10;  L 26.20 71.88&#10;  A 0.65 0.65 0.0 0 1 25.66 70.88&#10;  L 33.27 59.17&#10;  A 1.91 1.90 44.9 0 0 33.26 57.07&#10;  L 25.71 45.70&#10;  A 0.50 0.49 73.2 0 1 26.12 44.93&#10;  L 34.80 44.93&#10;  A 2.83 2.82 75.3 0 1 37.26 46.37&#10;  Q 38.10 47.86 39.69 50.24&#10;  Q 39.80 50.41 39.96 50.41&#10;  Q 40.12 50.41 40.24 50.24&#10;  Q 41.82 47.86 42.66 46.37&#10;  A 2.83 2.82 -75.4 0 1 45.12 44.92&#10;  L 53.80 44.91&#10;  A 0.50 0.49 -73.3 0 1 54.21 45.68&#10;  L 46.68 57.06&#10;  A 1.91 1.90 -44.9 0 0 46.67 59.16&#10;  L 54.30 70.86&#10;  A 0.65 0.65 0.0 0 1 53.76 71.86&#10;  L 45.71 71.87&#10;  A 3.08 3.08 0.0 0 1 42.94 70.17&#10;  Q 42.09 68.45 40.27 65.88&#10;  Q 40.20 65.78 39.97 65.78&#10;  Z"/>
<path fill="#72ad39" d="&#10;  M 155.8321 69.3216&#10;  A 2.62 2.62 0.0 0 1 153.2030 71.9325&#10;  L 134.5631 71.8674&#10;  A 2.62 2.62 0.0 0 1 131.9522 69.2383&#10;  L 132.0279 47.5584&#10;  A 2.62 2.62 0.0 0 1 134.6570 44.9475&#10;  L 153.2969 45.0126&#10;  A 2.62 2.62 0.0 0 1 155.9078 47.6417&#10;  L 155.8321 69.3216&#10;  Z&#10;  M 146.1497 49.9789&#10;  A 1.02 1.02 0.0 0 0 145.1333 48.9553&#10;  L 142.1133 48.9448&#10;  A 1.02 1.02 0.0 0 0 141.0898 49.9612&#10;  L 141.0303 67.0011&#10;  A 1.02 1.02 0.0 0 0 142.0467 68.0247&#10;  L 145.0667 68.0352&#10;  A 1.02 1.02 0.0 0 0 146.0902 67.0188&#10;  L 146.1497 49.9789&#10;  Z"/>
<path fill="#72ad39" d="&#10;  M 184.00 47.77&#10;  L 184.00 80.93&#10;  Q 183.64 83.13 180.31 83.10&#10;  Q 170.88 83.01 161.86 82.95&#10;  A 0.88 0.87 -90.0 0 1 160.99 82.07&#10;  L 160.99 80.11&#10;  A 0.79 0.78 -90.0 0 1 161.77 79.32&#10;  L 173.31 79.32&#10;  A 0.68 0.68 0.0 0 0 173.99 78.64&#10;  L 173.99 72.65&#10;  A 0.75 0.74 -90.0 0 0 173.25 71.90&#10;  L 161.97 71.90&#10;  A 1.81 1.80 -4.5 0 1 160.18 70.38&#10;  L 159.93 68.79&#10;  A 6.67 6.25 43.2 0 1 159.85 67.55&#10;  Q 160.19 51.47 160.02 47.74&#10;  Q 159.90 45.06 162.51 45.08&#10;  Q 168.91 45.11 177.99 44.68&#10;  Q 183.75 44.41 184.00 47.77&#10;  Z&#10;  M 173.86 49.99&#10;  A 1.09 1.09 0.0 0 0 172.77 48.90&#10;  L 170.25 48.90&#10;  A 1.09 1.09 0.0 0 0 169.16 49.99&#10;  L 169.16 66.87&#10;  A 1.09 1.09 0.0 0 0 170.25 67.96&#10;  L 172.77 67.96&#10;  A 1.09 1.09 0.0 0 0 173.86 66.87&#10;  L 173.86 49.99&#10;  Z"/>
<path fill="#72ad39" d="&#10;  M 0.00 48.68&#10;  L 0.00 46.68&#10;  Q 2.27 45.55 5.66 45.89&#10;  A 1.60 1.60 0.0 0 1 7.08 47.76&#10;  Q 6.79 49.42 5.71 49.67&#10;  Q 1.48 50.64 0.00 48.68&#10;  Z&#10;  M 3.2436 48.0591&#10;  A 1.30 1.19 5.7 0 0 2.0682 46.7459&#10;  A 1.30 1.19 5.7 0 0 0.6564 47.8009&#10;  A 1.30 1.19 5.7 0 0 1.8318 49.1141&#10;  A 1.30 1.19 5.7 0 0 3.2436 48.0591&#10;  Z&#10;  M 6.10 48.01&#10;  A 1.11 1.11 0.0 0 0 4.99 46.90&#10;  A 1.11 1.11 0.0 0 0 3.88 48.01&#10;  A 1.11 1.11 0.0 0 0 4.99 49.12&#10;  A 1.11 1.11 0.0 0 0 6.10 48.01&#10;  Z"/>
<rect fill="#72ad39" x="-11.06" y="-1.80" transform="translate(69.90,50.78) rotate(0.1)" width="22.12" height="3.60" rx="1.36"/>
<path fill="#72ad39" d="&#10;  M 0.00 57.17&#10;  L 0.00 53.35&#10;  Q 3.29 52.78 6.67 53.11&#10;  A 0.47 0.46 47.6 0 1 6.63 54.04&#10;  L 1.64 54.04&#10;  A 0.82 0.82 0.0 0 0 0.82 54.92&#10;  Q 0.91 56.37 0.00 57.17&#10;  Z"/>
<path fill="#72ad39" d="&#10;  M 7.0016 61.9998&#10;  A 2.02 2.02 0.0 0 1 4.9467 63.9842&#10;  L 2.1271 63.9350&#10;  A 2.02 2.02 0.0 0 1 0.1427 61.8801&#10;  L 0.1584 60.9802&#10;  A 2.02 2.02 0.0 0 1 2.2133 58.9958&#10;  L 5.0329 59.0450&#10;  A 2.02 2.02 0.0 0 1 7.0173 61.0999&#10;  L 7.0016 61.9998&#10;  Z&#10;  M 6.1489 61.1608&#10;  A 1.25 1.25 0.0 0 0 4.8945 59.9152&#10;  L 2.1146 59.9249&#10;  A 1.25 1.25 0.0 0 0 0.8689 61.1792&#10;  L 0.8711 61.7992&#10;  A 1.25 1.25 0.0 0 0 2.1255 63.0448&#10;  L 4.9054 63.0351&#10;  A 1.25 1.25 0.0 0 0 6.1511 61.7808&#10;  L 6.1489 61.1608&#10;  Z"/>
<path fill="#72ad39" d="&#10;  M 5.84 71.78&#10;  A 0.32 0.31 -6.9 0 1 5.35 71.40&#10;  Q 6.66 68.82 5.82 68.31&#10;  A 1.24 1.22 -25.9 0 0 5.20 68.10&#10;  L 2.04 68.00&#10;  A 1.15 1.15 0.0 0 0 0.86 68.98&#10;  Q 0.61 70.73 1.81 71.03&#10;  Q 2.27 71.15 2.65 70.83&#10;  Q 3.13 70.41 3.43 70.31&#10;  A 0.53 0.52 -15.6 0 1 4.12 70.69&#10;  L 4.15 70.86&#10;  A 0.76 0.76 0.0 0 1 3.73 71.71&#10;  Q 2.52 72.29 1.01 71.65&#10;  A 1.14 1.12 -87.8 0 1 0.37 70.95&#10;  Q -0.19 69.25 0.59 67.66&#10;  A 0.96 0.95 12.8 0 1 1.45 67.13&#10;  L 5.55 67.13&#10;  A 0.97 0.96 70.5 0 1 6.30 67.49&#10;  Q 8.15 69.81 5.84 71.78&#10;  Z"/>
</svg>