<svg xmlns="http://www.w3.org/2000/svg" version="1.1" viewBox="0.00 0.00 800.00 800.00" width="800.00" height="800.00">
<g stroke-width="2.00" fill="none" stroke-linecap="butt">
<path stroke="#7e6902" d="&#10;  M 296.5000 369.0000&#10;  A 98.99 40.49 90.0 0 0 336.9900 270.0100&#10;  A 98.99 40.49 90.0 0 0 296.5000 171.0200&#10;  A 98.99 40.49 90.0 0 0 256.0100 270.0100&#10;  A 98.99 40.49 90.0 0 0 296.5000 369.0000"/>
<path stroke="#7e6902" d="&#10;  M 522.5000 368.9800&#10;  A 98.98 40.49 90.0 0 0 562.9900 270.0000&#10;  A 98.98 40.49 90.0 0 0 522.5000 171.0200&#10;  A 98.98 40.49 90.0 0 0 482.0100 270.0000&#10;  A 98.98 40.49 90.0 0 0 522.5000 368.9800"/>
<path stroke="#7e6902" d="&#10;  M 408.48 675.09&#10;  Q 415.62 675.09 418.25 675.01&#10;  C 470.33 673.31 521.46 655.78 564.84 626.86&#10;  C 596.25 605.93 621.53 579.44 642.17 547.65&#10;  Q 649.09 537.01 657.97 520.68&#10;  Q 660.97 515.17 663.14 507.81&#10;  Q 663.56 506.42 664.32 505.50&#10;  A 0.81 0.80 -34.2 0 1 665.71 505.76&#10;  C 667.15 510.26 668.36 514.50 671.70 516.65&#10;  C 676.73 519.87 680.88 517.07 683.94 512.62&#10;  Q 689.25 504.89 688.43 494.76&#10;  C 686.95 476.32 681.37 458.12 668.73 445.32&#10;  Q 663.10 439.61 656.20 439.42&#10;  C 650.52 439.26 649.09 445.00 649.05 449.51&#10;  Q 648.96 459.96 653.48 469.56&#10;  A 4.07 4.05 -62.2 0 1 653.82 470.67&#10;  Q 654.23 473.25 653.83 474.57&#10;  Q 652.28 479.81 648.86 487.44&#10;  C 635.20 517.88 613.30 545.40 589.55 568.57&#10;  Q 542.42 614.54 479.12 631.32&#10;  Q 444.83 640.41 408.75 640.94&#10;  Q 408.52 640.94 408.48 640.94&#10;  Q 408.45 640.94 408.22 640.94&#10;  Q 372.14 640.40 337.85 631.30&#10;  Q 274.55 614.50 227.44 568.52&#10;  C 203.69 545.35 181.80 517.82 168.15 487.38&#10;  Q 164.73 479.75 163.18 474.50&#10;  Q 162.78 473.18 163.19 470.60&#10;  A 4.07 4.05 62.2 0 1 163.53 469.49&#10;  Q 168.05 459.90 167.97 449.45&#10;  C 167.93 444.94 166.50 439.20 160.82 439.35&#10;  Q 153.92 439.54 148.29 445.25&#10;  C 135.64 458.05 130.06 476.25 128.58 494.69&#10;  Q 127.75 504.82 133.06 512.55&#10;  C 136.12 517.00 140.27 519.80 145.30 516.58&#10;  C 148.64 514.43 149.85 510.19 151.29 505.69&#10;  A 0.81 0.80 34.2 0 1 152.68 505.43&#10;  Q 153.44 506.35 153.86 507.74&#10;  Q 156.03 515.10 159.03 520.61&#10;  Q 167.90 536.95 174.82 547.59&#10;  C 195.45 579.38 220.73 605.88 252.13 626.82&#10;  C 295.50 655.75 346.63 673.29 398.71 675.00&#10;  Q 401.34 675.09 408.48 675.09"/>
</g>
<path fill="#fcd204" d="&#10;  M 776.5319 395.3897&#10;  A 376.55 376.64 -0.7 0 1 404.6114 776.6019&#10;  A 376.55 376.64 -0.7 0 1 23.4881 404.5903&#10;  A 376.55 376.64 -0.7 0 1 395.4086 23.3781&#10;  A 376.55 376.64 -0.7 0 1 776.5319 395.3897&#10;  Z&#10;  M 296.5000 369.0000&#10;  A 98.99 40.49 90.0 0 0 336.9900 270.0100&#10;  A 98.99 40.49 90.0 0 0 296.5000 171.0200&#10;  A 98.99 40.49 90.0 0 0 256.0100 270.0100&#10;  A 98.99 40.49 90.0 0 0 296.5000 369.0000&#10;  Z&#10;  M 522.5000 368.9800&#10;  A 98.98 40.49 90.0 0 0 562.9900 270.0000&#10;  A 98.98 40.49 90.0 0 0 522.5000 171.0200&#10;  A 98.98 40.49 90.0 0 0 482.0100 270.0000&#10;  A 98.98 40.49 90.0 0 0 522.5000 368.9800&#10;  Z&#10;  M 408.48 675.09&#10;  Q 415.62 675.09 418.25 675.01&#10;  C 470.33 673.31 521.46 655.78 564.84 626.86&#10;  C 596.25 605.93 621.53 579.44 642.17 547.65&#10;  Q 649.09 537.01 657.97 520.68&#10;  Q 660.97 515.17 663.14 507.81&#10;  Q 663.56 506.42 664.32 505.50&#10;  A 0.81 0.80 -34.2 0 1 665.71 505.76&#10;  C 667.15 510.26 668.36 514.50 671.70 516.65&#10;  C 676.73 519.87 680.88 517.07 683.94 512.62&#10;  Q 689.25 504.89 688.43 494.76&#10;  C 686.95 476.32 681.37 458.12 668.73 445.32&#10;  Q 663.10 439.61 656.20 439.42&#10;  C 650.52 439.26 649.09 445.00 649.05 449.51&#10;  Q 648.96 459.96 653.48 469.56&#10;  A 4.07 4.05 -62.2 0 1 653.82 470.67&#10;  Q 654.23 473.25 653.83 474.57&#10;  Q 652.28 479.81 648.86 487.44&#10;  C 635.20 517.88 613.30 545.40 589.55 568.57&#10;  Q 542.42 614.54 479.12 631.32&#10;  Q 444.83 640.41 408.75 640.94&#10;  Q 408.52 640.94 408.48 640.94&#10;  Q 408.45 640.94 408.22 640.94&#10;  Q 372.14 640.40 337.85 631.30&#10;  Q 274.55 614.50 227.44 568.52&#10;  C 203.69 545.35 181.80 517.82 168.15 487.38&#10;  Q 164.73 479.75 163.18 474.50&#10;  Q 162.78 473.18 163.19 470.60&#10;  A 4.07 4.05 62.2 0 1 163.53 469.49&#10;  Q 168.05 459.90 167.97 449.45&#10;  C 167.93 444.94 166.50 439.20 160.82 439.35&#10;  Q 153.92 439.54 148.29 445.25&#10;  C 135.64 458.05 130.06 476.25 128.58 494.69&#10;  Q 127.75 504.82 133.06 512.55&#10;  C 136.12 517.00 140.27 519.80 145.30 516.58&#10;  C 148.64 514.43 149.85 510.19 151.29 505.69&#10;  A 0.81 0.80 34.2 0 1 152.68 505.43&#10;  Q 153.44 506.35 153.86 507.74&#10;  Q 156.03 515.10 159.03 520.61&#10;  Q 167.90 536.95 174.82 547.59&#10;  C 195.45 579.38 220.73 605.88 252.13 626.82&#10;  C 295.50 655.75 346.63 673.29 398.71 675.00&#10;  Q 401.34 675.09 408.48 675.09&#10;  Z"/>
<ellipse fill="#000000" cx="0.00" cy="0.00" transform="translate(296.50,270.01) rotate(90.0)" rx="98.99" ry="40.49"/>
<ellipse fill="#000000" cx="0.00" cy="0.00" transform="translate(522.50,270.00) rotate(90.0)" rx="98.98" ry="40.49"/>
<path fill="#000000" d="&#10;  M 408.48 640.94&#10;  Q 408.52 640.94 408.75 640.94&#10;  Q 444.83 640.41 479.12 631.32&#10;  Q 542.42 614.54 589.55 568.57&#10;  C 613.30 545.40 635.20 517.88 648.86 487.44&#10;  Q 652.28 479.81 653.83 474.57&#10;  Q 654.23 473.25 653.82 470.67&#10;  A 4.07 4.05 -62.2 0 0 653.48 469.56&#10;  Q 648.96 459.96 649.05 449.51&#10;  C 649.09 445.00 650.52 439.26 656.20 439.42&#10;  Q 663.10 439.61 668.73 445.32&#10;  C 681.37 458.12 686.95 476.32 688.43 494.76&#10;  Q 689.25 504.89 683.94 512.62&#10;  C 680.88 517.07 676.73 519.87 671.70 516.65&#10;  C 668.36 514.50 667.15 510.26 665.71 505.76&#10;  A 0.81 0.80 -34.2 0 0 664.32 505.50&#10;  Q 663.56 506.42 663.14 507.81&#10;  Q 660.97 515.17 657.97 520.68&#10;  Q 649.09 537.01 642.17 547.65&#10;  C 621.53 579.44 596.25 605.93 564.84 626.86&#10;  C 521.46 655.78 470.33 673.31 418.25 675.01&#10;  Q 415.62 675.09 408.48 675.09&#10;  Q 401.34 675.09 398.71 675.00&#10;  C 346.63 673.29 295.50 655.75 252.13 626.82&#10;  C 220.73 605.88 195.45 579.38 174.82 547.59&#10;  Q 167.90 536.95 159.03 520.61&#10;  Q 156.03 515.10 153.86 507.74&#10;  Q 153.44 506.35 152.68 505.43&#10;  A 0.81 0.80 34.2 0 0 151.29 505.69&#10;  C 149.85 510.19 148.64 514.43 145.30 516.58&#10;  C 140.27 519.80 136.12 517.00 133.06 512.55&#10;  Q 127.75 504.82 128.58 494.69&#10;  C 130.06 476.25 135.64 458.05 148.29 445.25&#10;  Q 153.92 439.54 160.82 439.35&#10;  C 166.50 439.20 167.93 444.94 167.97 449.45&#10;  Q 168.05 459.90 163.53 469.49&#10;  A 4.07 4.05 62.2 0 0 163.19 470.60&#10;  Q 162.78 473.18 163.18 474.50&#10;  Q 164.73 479.75 168.15 487.38&#10;  C 181.80 517.82 203.69 545.35 227.44 568.52&#10;  Q 274.55 614.50 337.85 631.30&#10;  Q 372.14 640.40 408.22 640.94&#10;  Q 408.45 640.94 408.48 640.94&#10;  Z"/>
</svg>