<svg xmlns="http://www.w3.org/2000/svg" version="1.1" viewBox="0.00 0.00 256.00 178.00" width="256.00" height="178.00">
<g stroke-width="2.00" fill="none" stroke-linecap="butt">
<path stroke="#7e6902" d="&#10;  M 151.9672 23.2416&#10;  A 7.19 2.94 65.1 0 0 151.6067 15.4822&#10;  A 7.19 2.94 65.1 0 0 145.9128 10.1984&#10;  A 7.19 2.94 65.1 0 0 146.2733 17.9578&#10;  A 7.19 2.94 65.1 0 0 151.9672 23.2416"/>
<path stroke="#7e6902" d="&#10;  M 137.1862 30.0763&#10;  A 7.14 2.94 65.1 0 0 136.8467 22.3622&#10;  A 7.14 2.94 65.1 0 0 131.1738 17.1237&#10;  A 7.14 2.94 65.1 0 0 131.5133 24.8378&#10;  A 7.14 2.94 65.1 0 0 137.1862 30.0763"/>
<path stroke="#7e6902" d="&#10;  M 152.74 44.35&#10;  C 145.73 47.60 138.17 46.37 132.20 41.48&#10;  A 1.68 1.67 -76.2 0 1 131.62 40.52&#10;  L 131.35 39.24&#10;  A 0.66 0.66 0.0 0 0 130.12 39.08&#10;  Q 128.99 41.33 130.23 43.85&#10;  Q 130.52 44.44 131.05 44.49&#10;  Q 131.50 44.54 131.86 44.14&#10;  A 0.67 0.66 -50.2 0 1 132.78 44.05&#10;  C 138.73 48.74 146.69 49.92 153.79 46.63&#10;  C 160.90 43.33 165.14 36.49 165.41 28.92&#10;  A 0.67 0.66 0.4 0 1 166.06 28.27&#10;  Q 166.60 28.26 166.85 27.88&#10;  Q 167.16 27.44 166.90 26.84&#10;  Q 165.77 24.27 163.32 23.68&#10;  A 0.66 0.66 0.0 0 0 162.65 24.72&#10;  L 163.46 25.75&#10;  A 1.68 1.67 26.4 0 1 163.81 26.81&#10;  C 163.69 34.53 159.75 41.10 152.74 44.35"/>
</g>
<path fill="#fcd204" d="&#10;  M 171.57 28.96&#10;  A 26.68 26.68 0.0 0 1 144.89 55.64&#10;  A 26.68 26.68 0.0 0 1 118.21 28.96&#10;  A 26.68 26.68 0.0 0 1 144.89 2.28&#10;  A 26.68 26.68 0.0 0 1 171.57 28.96&#10;  Z&#10;  M 151.9672 23.2416&#10;  A 7.19 2.94 65.1 0 0 151.6067 15.4822&#10;  A 7.19 2.94 65.1 0 0 145.9128 10.1984&#10;  A 7.19 2.94 65.1 0 0 146.2733 17.9578&#10;  A 7.19 2.94 65.1 0 0 151.9672 23.2416&#10;  Z&#10;  M 137.1862 30.0763&#10;  A 7.14 2.94 65.1 0 0 136.8467 22.3622&#10;  A 7.14 2.94 65.1 0 0 131.1738 17.1237&#10;  A 7.14 2.94 65.1 0 0 131.5133 24.8378&#10;  A 7.14 2.94 65.1 0 0 137.1862 30.0763&#10;  Z&#10;  M 152.74 44.35&#10;  C 145.73 47.60 138.17 46.37 132.20 41.48&#10;  A 1.68 1.67 -76.2 0 1 131.62 40.52&#10;  L 131.35 39.24&#10;  A 0.66 0.66 0.0 0 0 130.12 39.08&#10;  Q 128.99 41.33 130.23 43.85&#10;  Q 130.52 44.44 131.05 44.49&#10;  Q 131.50 44.54 131.86 44.14&#10;  A 0.67 0.66 -50.2 0 1 132.78 44.05&#10;  C 138.73 48.74 146.69 49.92 153.79 46.63&#10;  C 160.90 43.33 165.14 36.49 165.41 28.92&#10;  A 0.67 0.66 0.4 0 1 166.06 28.27&#10;  Q 166.60 28.26 166.85 27.88&#10;  Q 167.16 27.44 166.90 26.84&#10;  Q 165.77 24.27 163.32 23.68&#10;  A 0.66 0.66 0.0 0 0 162.65 24.72&#10;  L 163.46 25.75&#10;  A 1.68 1.67 26.4 0 1 163.81 26.81&#10;  C 163.69 34.53 159.75 41.10 152.74 44.35&#10;  Z"/>
<ellipse fill="#000000" cx="0.00" cy="0.00" transform="translate(148.94,16.72) rotate(65.1)" rx="7.19" ry="2.94"/>
<ellipse fill="#000000" cx="0.00" cy="0.00" transform="translate(134.18,23.60) rotate(65.1)" rx="7.14" ry="2.94"/>
<path fill="#000000" d="&#10;  M 153.79 46.63&#10;  C 146.69 49.92 138.73 48.74 132.78 44.05&#10;  A 0.67 0.66 -50.2 0 0 131.86 44.14&#10;  Q 131.50 44.54 131.05 44.49&#10;  Q 130.52 44.44 130.23 43.85&#10;  Q 128.99 41.33 130.12 39.08&#10;  A 0.66 0.66 0.0 0 1 131.35 39.24&#10;  L 131.62 40.52&#10;  A 1.68 1.67 -76.2 0 0 132.20 41.48&#10;  C 138.17 46.37 145.73 47.60 152.74 44.35&#10;  C 159.75 41.10 163.69 34.53 163.81 26.81&#10;  A 1.68 1.67 26.4 0 0 163.46 25.75&#10;  L 162.65 24.72&#10;  A 0.66 0.66 0.0 0 1 163.32 23.68&#10;  Q 165.77 24.27 166.90 26.84&#10;  Q 167.16 27.44 166.85 27.88&#10;  Q 166.60 28.26 166.06 28.27&#10;  A 0.67 0.66 0.4 0 0 165.41 28.92&#10;  C 165.14 36.49 160.90 43.33 153.79 46.63&#10;  Z"/>
<path fill="#1e5600" d="&#10;  M 4.09 108.69&#10;  A 0.13 0.13 0.0 0 1 3.97 108.50&#10;  Q 14.60 87.08 23.42 70.91&#10;  Q 31.70 55.73 41.30 43.57&#10;  Q 47.67 35.51 55.97 31.45&#10;  Q 59.71 29.62 65.11 30.08&#10;  C 72.69 30.74 79.49 36.91 83.93 43.07&#10;  C 92.60 55.08 100.99 72.50 105.70 81.16&#10;  A 1.41 1.41 0.0 0 0 107.94 81.47&#10;  Q 121.20 67.83 139.38 73.73&#10;  A 0.49 0.48 -63.4 0 1 139.62 74.47&#10;  Q 133.27 83.26 129.41 92.26&#10;  A 0.51 0.50 -65.3 0 1 128.72 92.52&#10;  C 118.15 87.30 107.57 84.72 96.36 85.36&#10;  C 80.03 86.29 63.40 94.73 51.95 106.52&#10;  A 1.91 1.87 -68.1 0 1 50.65 107.09&#10;  L 4.09 108.69&#10;  Z"/>
<path fill="#78c000" d="&#10;  M 59.01 106.84&#10;  C 68.64 98.48 80.21 92.53 92.60 90.57&#10;  C 105.10 88.59 121.03 92.34 131.25 100.34&#10;  A 0.63 0.63 0.0 0 0 132.22 100.07&#10;  C 139.53 80.85 151.58 63.60 169.02 52.17&#10;  C 192.68 36.67 215.61 53.85 229.83 72.42&#10;  Q 242.76 89.30 251.65 108.70&#10;  A 0.30 0.29 -13.8 0 1 251.39 109.12&#10;  Q 242.61 109.53 233.22 110.11&#10;  C 223.46 110.71 216.09 110.69 209.75 110.96&#10;  Q 190.22 111.80 167.50 111.08&#10;  Q 166.54 111.05 165.63 110.77&#10;  A 2.53 2.49 -36.7 0 0 164.83 110.66&#10;  Q 151.71 110.80 145.20 110.04&#10;  C 141.49 109.61 137.69 109.78 134.60 109.55&#10;  Q 96.74 106.68 59.14 107.18&#10;  A 0.20 0.19 24.3 0 1 59.01 106.84&#10;  Z"/>
<path fill="#1e5600" d="&#10;  M 236.15 178.00&#10;  L 232.88 178.00&#10;  Q 231.13 177.20 229.37 176.41&#10;  C 224.04 174.01 221.03 169.85 220.51 163.94&#10;  Q 220.16 159.95 220.38 139.55&#10;  C 220.48 129.80 220.85 122.37 230.40 119.33&#10;  C 237.46 117.08 246.96 118.36 251.88 124.56&#10;  C 254.75 128.18 254.93 134.78 254.62 139.60&#10;  A 0.56 0.56 0.0 0 1 254.06 140.13&#10;  L 240.69 140.13&#10;  A 0.62 0.62 0.0 0 1 240.07 139.53&#10;  L 239.74 129.92&#10;  A 1.61 1.60 -75.4 0 0 238.97 128.60&#10;  C 237.47 127.66 235.85 128.04 235.44 129.98&#10;  Q 234.78 133.11 234.73 135.75&#10;  Q 234.44 150.28 235.31 165.22&#10;  A 2.58 2.58 0.0 0 0 237.91 167.65&#10;  L 238.05 167.64&#10;  A 2.31 2.30 -3.0 0 0 240.25 165.21&#10;  L 239.70 155.53&#10;  A 1.17 1.13 -71.3 0 0 239.33 154.75&#10;  C 237.68 153.23 238.10 149.43 237.89 147.39&#10;  A 1.37 1.37 0.0 0 1 239.25 145.88&#10;  L 254.31 145.88&#10;  A 0.35 0.35 0.0 0 1 254.66 146.23&#10;  L 254.66 175.66&#10;  A 0.52 0.51 -88.9 0 1 254.13 176.18&#10;  L 246.60 176.00&#10;  A 0.70 0.69 67.6 0 1 246.15 175.81&#10;  L 244.12 173.77&#10;  A 0.54 0.54 0.0 0 0 243.48 173.69&#10;  L 236.15 178.00&#10;  Z"/>
<path fill="#1e5600" d="&#10;  M 189.99 178.00&#10;  L 184.26 178.00&#10;  Q 175.70 175.89 172.24 170.04&#10;  Q 170.35 166.85 170.18 161.13&#10;  Q 169.85 150.15 170.10 135.97&#10;  Q 170.23 128.76 172.27 125.45&#10;  C 176.45 118.66 183.91 118.01 191.21 118.86&#10;  Q 200.96 119.99 203.49 129.53&#10;  Q 203.92 131.14 204.05 136.25&#10;  Q 204.37 148.56 204.01 160.72&#10;  Q 203.84 166.81 201.99 169.99&#10;  Q 198.59 175.87 189.99 178.00&#10;  Z&#10;  M 189.33 130.42&#10;  A 2.19 2.19 0.0 0 0 187.14 128.23&#10;  L 186.88 128.23&#10;  A 2.19 2.19 0.0 0 0 184.69 130.42&#10;  L 184.69 165.54&#10;  A 2.19 2.19 0.0 0 0 186.88 167.73&#10;  L 187.14 167.73&#10;  A 2.19 2.19 0.0 0 0 189.33 165.54&#10;  L 189.33 130.42&#10;  Z"/>
<path fill="#78c000" d="&#10;  M 34.68 119.97&#10;  Q 30.85 136.17 30.28 140.50&#10;  Q 29.60 145.65 30.86 150.87&#10;  Q 33.62 162.27 36.86 174.98&#10;  A 0.88 0.88 0.0 0 1 36.01 176.08&#10;  L 24.12 176.08&#10;  A 0.91 0.90 -5.8 0 1 23.23 175.36&#10;  L 19.89 159.39&#10;  A 0.59 0.59 0.0 0 0 18.77 159.28&#10;  C 17.63 161.97 17.35 167.34 16.44 174.69&#10;  A 1.63 1.62 3.6 0 1 14.82 176.11&#10;  L 2.63 176.11&#10;  A 0.70 0.69 5.1 0 1 1.94 175.29&#10;  Q 5.73 154.77 5.99 153.01&#10;  C 6.83 147.40 7.18 143.41 6.01 137.77&#10;  Q 4.59 130.91 2.19 119.77&#10;  A 0.35 0.35 0.0 0 1 2.53 119.35&#10;  L 15.68 119.35&#10;  A 0.66 0.65 -4.6 0 1 16.33 119.89&#10;  Q 16.96 123.49 17.59 127.93&#10;  Q 17.91 130.21 18.94 131.87&#10;  A 0.55 0.55 0.0 0 0 19.94 131.69&#10;  L 22.23 119.79&#10;  A 0.58 0.57 5.4 0 1 22.80 119.33&#10;  L 34.17 119.33&#10;  A 0.52 0.52 0.0 0 1 34.68 119.97&#10;  Z"/>
<path fill="#1e5600" d="&#10;  M 83.24 119.32&#10;  Q 92.35 119.33 100.76 119.33&#10;  C 114.20 119.34 117.48 128.26 115.47 140.30&#10;  A 2.82 2.78 -24.7 0 1 115.07 141.36&#10;  Q 113.68 143.55 110.78 144.65&#10;  A 0.71 0.71 0.0 0 0 110.76 145.97&#10;  Q 115.91 148.19 116.63 153.46&#10;  Q 117.77 161.78 116.36 169.22&#10;  Q 115.41 174.27 110.42 175.49&#10;  C 109.05 175.82 107.54 175.53 106.10 176.00&#10;  A 2.47 2.45 35.8 0 1 105.34 176.12&#10;  L 83.86 176.12&#10;  A 1.27 1.27 0.0 0 1 82.59 174.85&#10;  L 82.59 119.97&#10;  A 0.65 0.65 0.0 0 1 83.24 119.32&#10;  Z&#10;  M 99.22 129.13&#10;  A 1.52 1.52 0.0 0 0 97.41 130.62&#10;  L 97.41 140.25&#10;  A 1.52 1.52 0.0 0 0 99.24 141.74&#10;  L 101.04 141.36&#10;  A 1.52 1.52 0.0 0 0 102.25 139.87&#10;  L 102.25 130.97&#10;  A 1.52 1.52 0.0 0 0 101.02 129.47&#10;  L 99.22 129.13&#10;  Z&#10;  M 97.44 151.23&#10;  L 97.36 165.73&#10;  A 0.67 0.67 0.0 0 0 98.03 166.40&#10;  L 100.34 166.41&#10;  A 2.41 1.92 -89.7 0 0 102.27 164.01&#10;  L 102.33 152.99&#10;  A 2.41 1.92 -89.7 0 0 100.42 150.57&#10;  L 98.11 150.56&#10;  A 0.67 0.67 0.0 0 0 97.44 151.23&#10;  Z"/>
<path fill="#1e5600" d="&#10;  M 133.67 119.31&#10;  L 147.33 119.31&#10;  A 0.34 0.34 0.0 0 1 147.67 119.65&#10;  L 147.67 164.51&#10;  A 0.34 0.34 0.0 0 0 148.01 164.85&#10;  L 156.33 164.85&#10;  A 0.34 0.34 0.0 0 1 156.67 165.19&#10;  L 156.67 175.79&#10;  A 0.34 0.34 0.0 0 1 156.33 176.13&#10;  L 133.67 176.13&#10;  A 0.34 0.34 0.0 0 1 133.33 175.79&#10;  L 133.33 119.65&#10;  A 0.34 0.34 0.0 0 1 133.67 119.31&#10;  Z"/>
<rect fill="#78c000" x="-9.39" y="-4.67" transform="translate(58.00,153.00) rotate(0.1)" width="18.78" height="9.34" rx="0.36"/>
</svg>