<svg xmlns="http://www.w3.org/2000/svg" version="1.1" viewBox="0.00 0.00 199.00 98.00" width="199.00" height="98.00">
<path fill="#003366" d="&#10;  M 27.77 8.36&#10;  L 58.88 8.36&#10;  A 0.34 0.34 0.0 0 1 59.17 8.89&#10;  L 58.41 10.04&#10;  A 0.34 0.34 0.0 0 0 58.42 10.42&#10;  L 71.58 30.01&#10;  A 0.34 0.34 0.0 0 1 71.30 30.54&#10;  L 68.43 30.54&#10;  A 0.34 0.34 0.0 0 1 68.15 30.39&#10;  L 56.48 13.03&#10;  A 0.34 0.34 0.0 0 0 55.91 13.03&#10;  L 37.94 40.49&#10;  A 0.34 0.34 0.0 0 1 37.66 40.64&#10;  L 7.10 40.64&#10;  A 0.34 0.34 0.0 0 1 6.81 40.11&#10;  L 27.49 8.51&#10;  A 0.34 0.34 0.0 0 1 27.77 8.36&#10;  Z"/>
<path fill="#003366" d="&#10;  M 69.77 25.19&#10;  A 0.35 0.34 12.8 0 1 69.43 24.66&#10;  L 77.75 11.93&#10;  A 0.87 0.87 0.0 0 1 78.33 11.56&#10;  Q 82.27 10.96 94.24 11.32&#10;  Q 96.30 11.39 97.20 12.81&#10;  Q 103.75 23.13 108.87 30.13&#10;  A 0.34 0.34 0.0 0 1 108.60 30.67&#10;  L 90.92 30.67&#10;  A 1.48 1.45 72.8 0 1 89.70 30.01&#10;  L 79.51 14.69&#10;  A 1.21 1.19 -18.4 0 0 78.44 14.16&#10;  Q 77.93 14.19 77.44 14.96&#10;  Q 72.98 21.92 71.13 24.38&#10;  Q 70.61 25.08 69.77 25.19&#10;  Z"/>
<path fill="#003366" d="&#10;  M 91.67 38.54&#10;  L 117.12 38.54&#10;  A 1.83 1.82 86.4 0 1 118.93 40.14&#10;  C 119.31 43.05 120.35 52.70 117.80 54.48&#10;  Q 117.53 54.66 117.53 54.71&#10;  A 0.75 0.74 15.0 0 0 117.99 55.49&#10;  L 118.53 55.72&#10;  A 1.21 1.21 0.0 0 1 119.26 56.62&#10;  C 120.27 62.04 120.09 65.18 120.09 72.88&#10;  A 2.78 2.59 -57.0 0 0 120.25 73.80&#10;  Q 120.76 75.15 120.42 76.24&#10;  Q 119.69 78.60 118.49 79.34&#10;  Q 117.70 79.83 114.85 79.42&#10;  A 5.83 5.47 -38.7 0 0 113.96 79.35&#10;  L 91.60 79.32&#10;  A 0.26 0.25 -90.0 0 1 91.35 79.06&#10;  L 91.35 38.86&#10;  A 0.32 0.32 0.0 0 1 91.67 38.54&#10;  Z&#10;  M 109.4733 42.3023&#10;  A 0.75 0.75 0.0 0 0 108.7181 41.5576&#10;  L 102.2583 41.6027&#10;  A 0.75 0.75 0.0 0 0 101.5135 42.3579&#10;  L 101.5867 52.8377&#10;  A 0.75 0.75 0.0 0 0 102.3419 53.5824&#10;  L 108.8017 53.5373&#10;  A 0.75 0.75 0.0 0 0 109.5465 52.7821&#10;  L 109.4733 42.3023&#10;  Z&#10;  M 110.3933 56.8922&#10;  A 0.32 0.32 0.0 0 0 110.0727 56.5727&#10;  L 101.7327 56.5873&#10;  A 0.32 0.32 0.0 0 0 101.4133 56.9079&#10;  L 101.4467 76.0878&#10;  A 0.32 0.32 0.0 0 0 101.7673 76.4073&#10;  L 110.1073 76.3927&#10;  A 0.32 0.32 0.0 0 0 110.4267 76.0721&#10;  L 110.3933 56.8922&#10;  Z"/>
<rect fill="#003366" x="-4.45" y="-20.28" transform="translate(128.84,58.94) rotate(0.1)" width="8.90" height="40.56" rx="0.27"/>
<ellipse fill="#003366" cx="0.00" cy="0.00" transform="translate(7.64,47.25) rotate(27.3)" rx="1.63" ry="0.54"/>
<path fill="#003366" d="&#10;  M 12.04 50.71&#10;  L 9.87 49.29&#10;  A 0.85 0.84 -45.3 0 0 8.93 49.30&#10;  L 6.69 50.80&#10;  A 0.35 0.35 0.0 0 1 6.22 50.30&#10;  Q 7.09 49.18 8.23 48.96&#10;  A 1.03 1.02 -78.2 0 0 8.89 48.52&#10;  Q 9.88 46.99 12.36 46.52&#10;  A 0.24 0.23 -66.9 0 1 12.53 46.95&#10;  L 10.38 48.40&#10;  A 0.26 0.26 0.0 0 0 10.44 48.86&#10;  Q 13.63 49.85 12.45 50.70&#10;  A 0.38 0.37 43.2 0 1 12.04 50.71&#10;  Z"/>
<path fill="#003366" d="&#10;  M 188.65 90.13&#10;  Q 188.66 90.22 188.65 90.26&#10;  A 0.46 0.45 5.3 0 1 188.20 90.63&#10;  L 167.50 90.64&#10;  A 0.16 0.16 0.0 0 1 167.34 90.48&#10;  L 167.34 88.17&#10;  A 0.31 0.31 0.0 0 1 167.65 87.86&#10;  L 180.04 87.86&#10;  A 0.34 0.34 0.0 0 0 180.38 87.52&#10;  L 180.38 79.77&#10;  A 0.34 0.34 0.0 0 0 180.04 79.43&#10;  L 168.80 79.43&#10;  A 2.36 2.35 -0.0 0 1 166.44 77.08&#10;  L 166.44 55.43&#10;  A 1.99 1.99 0.0 0 1 168.43 53.44&#10;  L 186.73 53.44&#10;  A 2.88 2.88 0.0 0 1 189.61 56.39&#10;  Q 189.20 72.58 189.63 88.74&#10;  Q 189.65 89.51 189.06 89.60&#10;  A 0.49 0.48 -7.4 0 0 188.65 90.13&#10;  Z&#10;  M 180.3431 56.7751&#10;  A 0.26 0.26 0.0 0 0 180.0826 56.5155&#10;  L 174.9426 56.5245&#10;  A 0.26 0.26 0.0 0 0 174.6831 56.7850&#10;  L 174.7169 76.1849&#10;  A 0.26 0.26 0.0 0 0 174.9774 76.4445&#10;  L 180.1174 76.4355&#10;  A 0.26 0.26 0.0 0 0 180.3769 76.1750&#10;  L 180.3431 56.7751&#10;  Z"/>
<path fill="#003366" d="&#10;  M 45.97 58.79&#10;  Q 46.51 58.79 46.84 58.35&#10;  Q 48.55 56.06 49.23 54.75&#10;  A 2.39 2.38 -76.1 0 1 51.34 53.47&#10;  L 59.09 53.47&#10;  A 0.43 0.43 0.0 0 1 59.44 54.16&#10;  L 51.85 64.77&#10;  A 2.08 2.08 0.0 0 0 51.81 67.14&#10;  L 59.63 78.78&#10;  A 0.40 0.39 73.9 0 1 59.29 79.40&#10;  L 51.27 79.16&#10;  A 1.89 1.88 -9.2 0 1 49.56 77.93&#10;  Q 49.41 77.52 47.10 73.91&#10;  Q 46.64 73.19 45.98 73.19&#10;  Q 45.31 73.19 44.86 73.91&#10;  Q 42.55 77.52 42.40 77.93&#10;  A 1.89 1.88 9.2 0 1 40.69 79.16&#10;  L 32.67 79.41&#10;  A 0.40 0.39 -74.0 0 1 32.33 78.79&#10;  L 40.14 67.14&#10;  A 2.08 2.08 0.0 0 0 40.10 64.77&#10;  L 32.50 54.17&#10;  A 0.43 0.43 0.0 0 1 32.85 53.48&#10;  L 40.60 53.47&#10;  A 2.39 2.38 76.1 0 1 42.71 54.75&#10;  Q 43.39 56.06 45.11 58.35&#10;  Q 45.43 58.79 45.97 58.79&#10;  Z"/>
<path fill="#003366" d="&#10;  M 161.2357 77.3488&#10;  A 2.22 2.22 0.0 0 1 158.9964 79.5494&#10;  L 140.6971 79.3897&#10;  A 2.22 2.22 0.0 0 1 138.4965 77.1504&#10;  L 138.6843 55.6312&#10;  A 2.22 2.22 0.0 0 1 140.9236 53.4306&#10;  L 159.2229 53.5903&#10;  A 2.22 2.22 0.0 0 1 161.4235 55.8296&#10;  L 161.2357 77.3488&#10;  Z&#10;  M 152.4755 57.5349&#10;  A 1.03 1.03 0.0 0 0 151.4473 56.5031&#10;  L 147.8673 56.4969&#10;  A 1.03 1.03 0.0 0 0 146.8355 57.5251&#10;  L 146.8045 75.3251&#10;  A 1.03 1.03 0.0 0 0 147.8327 76.3569&#10;  L 151.4127 76.3631&#10;  A 1.03 1.03 0.0 0 0 152.4445 75.3349&#10;  L 152.4755 57.5349&#10;  Z"/>
<path fill="#003366" d="&#10;  M 12.21 54.15&#10;  A 0.77 0.77 0.0 0 1 12.99 54.91&#10;  L 13.01 55.89&#10;  A 1.97 1.96 89.0 0 1 11.08 57.89&#10;  L 8.04 57.95&#10;  A 1.97 1.96 89.0 0 1 6.05 56.01&#10;  L 6.03 55.03&#10;  A 0.77 0.77 0.0 0 1 6.79 54.25&#10;  L 12.21 54.15&#10;  Z&#10;  M 9.4137 55.8579&#10;  A 0.94 0.94 0.0 0 0 8.4936 54.8984&#10;  L 7.7138 54.8821&#10;  A 0.94 0.94 0.0 0 0 6.7543 55.8022&#10;  L 6.7463 56.1821&#10;  A 0.94 0.94 0.0 0 0 7.6664 57.1416&#10;  L 8.4462 57.1579&#10;  A 0.94 0.94 0.0 0 0 9.4057 56.2378&#10;  L 9.4137 55.8579&#10;  Z&#10;  M 12.17 56.08&#10;  A 1.17 1.17 0.0 0 0 11.00 54.91&#10;  A 1.17 1.17 0.0 0 0 9.83 56.08&#10;  A 1.17 1.17 0.0 0 0 11.00 57.25&#10;  A 1.17 1.17 0.0 0 0 12.17 56.08&#10;  Z"/>
<rect fill="#003366" x="-10.59" y="-1.33" transform="translate(75.93,58.70) rotate(-0.2)" width="21.18" height="2.66" rx="0.27"/>
<path fill="#003366" d="&#10;  M 6.00 64.59&#10;  L 6.10 61.97&#10;  A 0.87 0.87 0.0 0 1 6.97 61.12&#10;  L 12.64 61.12&#10;  A 0.41 0.41 0.0 0 1 12.70 61.93&#10;  Q 11.25 62.14 8.10 62.03&#10;  A 1.33 1.33 0.0 0 0 6.72 63.34&#10;  Q 6.71 64.69 6.61 64.81&#10;  A 0.34 0.34 0.0 0 1 6.00 64.59&#10;  Z"/>
<path fill="#003366" d="&#10;  M 12.9853 69.9560&#10;  A 2.04 2.04 0.0 0 1 10.9241 71.9745&#10;  L 8.1242 71.9452&#10;  A 2.04 2.04 0.0 0 1 6.1057 69.8840&#10;  L 6.1147 69.0240&#10;  A 2.04 2.04 0.0 0 1 8.1759 67.0055&#10;  L 10.9758 67.0348&#10;  A 2.04 2.04 0.0 0 1 12.9943 69.0960&#10;  L 12.9853 69.9560&#10;  Z&#10;  M 12.1721 69.2331&#10;  A 1.34 1.34 0.0 0 0 10.8438 67.8815&#10;  L 8.2239 67.8586&#10;  A 1.34 1.34 0.0 0 0 6.8723 69.1869&#10;  L 6.8679 69.6869&#10;  A 1.34 1.34 0.0 0 0 8.1962 71.0385&#10;  L 10.8161 71.0614&#10;  A 1.34 1.34 0.0 0 0 12.1677 69.7331&#10;  L 12.1721 69.2331&#10;  Z"/>
<path fill="#003366" d="&#10;  M 11.31 79.20&#10;  Q 12.55 77.79 12.00 76.61&#10;  A 1.01 1.00 79.4 0 0 11.16 76.03&#10;  C 10.25 75.98 7.49 75.41 6.90 77.03&#10;  A 1.41 1.26 -82.9 0 0 8.21 78.93&#10;  Q 8.39 78.90 9.36 78.42&#10;  A 0.63 0.62 75.4 0 1 10.25 78.96&#10;  Q 10.30 79.79 8.74 79.98&#10;  A 2.52 1.94 -13.1 0 1 6.31 78.87&#10;  Q 5.94 78.01 6.44 75.96&#10;  A 0.96 0.95 -89.5 0 1 7.16 75.25&#10;  C 8.27 75.00 10.25 74.96 11.26 75.17&#10;  C 13.92 75.75 13.38 78.51 11.80 79.86&#10;  A 0.29 0.29 0.0 0 1 11.42 79.85&#10;  L 11.35 79.79&#10;  A 0.43 0.42 41.6 0 1 11.31 79.20&#10;  Z"/>
</svg>